<svg fill="none" height="635" viewBox="0 0 1440 635" width="1440" xmlns="http://www.w3.org/2000/svg" xmlns:xlink="http://www.w3.org/1999/xlink"><linearGradient id="a" gradientUnits="userSpaceOnUse" x1="-24.4803" x2="957.928" y1="-127.217" y2="1306.15"><stop offset="0" stop-color="#6414ee"/><stop offset="1" stop-color="#0069ff" stop-opacity="0"/></linearGradient><path clip-rule="evenodd" d="m914.102-1.62988v.00238l.001.0036c8.445 28.0839 16.14 53.6724 23.978 75.8237 57.33 162.0332 151.039 176.8642 264.799 194.8682 49.68 7.861 103.17 16.327 159.13 37.919 43.31 16.71 106.38 59.482 187.09 114.207 262.38 177.926 711.1 482.198 1272.45 427.87 132.36-12.811 212.44-47.927 253.7-97.399-132.15 204.831-497.4 433.995-1119.78 102.451-270.36-144.027-277.86-3.324-285.25 135.208-6.67 124.966-13.24 248.156-212.56 159.006-391.9-175.273-79.65 274.16 129.3 574.92 15.14 21.8 29.74 42.81 43.49 62.75h1494.26v-969.984-171.446c9.76-36.481 9.68-67.285 0-87.2v87.2c-4.99 18.68-12.56 38.849-22.74 59.807 61.43-179.837-220.98-478.235-429.4-648.7562-42.26-51.38008-47.11-35.2194-60.1 8.0602-29.26 97.479-99.81 332.527-732.05 243.306-487.12-68.742-292.06-89.921-179.99-102.09 24.9-2.704 45.71-4.963 54.02-7.2 69.04-18.579 174.81-138.9288 35.13-177.0493-302.17-82.465-447.33-401.5507-509.13-537.4157-28.88-63.484-39.56-86.966-39.56-27.612 0 442.191 277.65 535.73455 359.22 563.2165l.03.0103c1.88.6343 3.66 1.2335 5.33 1.8009 73.88 25.1366 196.22 109.2903-109.01 109.2903s-350.05-193.4434-287.06-349.728c62.98-156.284-94.88-677.251-641.988-766.056-725.713-117.794-905.096 228.95-865.529 316.017 983.767-91.513 1131.915 401.15 1212.219 668.19912zm-2095.212-109.85212c205.107 46.9941 659.4 92.8956 835.755-99.454 220.444-240.438 591.917-210.775 719.855 59.436 82.741 174.7533-29.5 337.5-146.942 368.979-107.099 28.707-204.3351-10.19-274.1078-38.1l-.0015-.001c-6.4054-2.562-12.5793-5.032-18.508-7.348-6.6664-14.577-26.1239-22.069-53.6117-24.54-29.813-16.76-77.122-47.249-158.855-107.0599-153.826-112.5685-279.794-18.5793-67.829 60.1099 8.277 3.072 16.488 6.097 24.605 9.087 39.158 14.424 76.135 28.044 107.869 42.41-99.05 13.212-222.002 47.08-286.746 66.028 123.396 86.498 290.73 138.949 389.346 45.818-5.855 48.999-59.798 114.39-187.836 209.334-333.089 246.995 1.211 248.087 118.701 222.951 46.623-9.975 49.186-34.406 52.27-63.801 4.688-44.68 10.58-100.827 174.2305-135.106 271.3155-56.831 1061.0355-115.848 1315.3955 127.868s-31.49 581.421-373.057 410.931c-103.775-51.8-210.121-136.284-307.455-213.609l-.002-.001c-223.034-177.186-398.752-316.781-387.79 60.602 12.597 433.658 413.837 544.268 612.883 545.358l446.461 357.59h-1435.7876c-53.7854 0-72.7084-54.44-101.0154-135.87-79.404-228.43-232.643-669.269-1436.287-716.804-277.74-10.968 138.85-97.589 277.74-117.31 635.058-90.174 791.643-124.429 263.68-258.646-481.33-122.361-618.57-848.63-102.96-668.852z" fill="url(#a)" fill-rule="evenodd"/></svg>